<svg width="33" height="33" viewBox="0 0 33 33" fill="none" xmlns="http://www.w3.org/2000/svg">
<path d="M0 8.72402C0.309315 7.17652 0.541297 5.7064 1.39191 4.39102C3.2478 1.29603 6.18629 0.135406 9.58875 0.0580312C14.1511 -0.0193437 18.7909 -0.0193437 23.4306 0.0580312C26.5237 0.135406 29.3076 1.14128 31.2408 3.8494C32.478 5.62902 32.942 7.56339 32.942 9.65252C33.0193 14.0629 33.0193 18.4733 32.942 22.961C32.8647 26.5202 31.6274 29.5379 28.3023 31.3949C26.7557 32.246 25.0545 32.5555 23.3533 32.6329C18.7909 32.7102 14.2285 32.7102 9.74341 32.6329C6.34095 32.5555 3.40246 31.3949 1.46925 28.2999C0.61863 26.9845 0.386642 25.437 0.0773275 23.9669L0 8.72402ZM16.471 3.15303C14.2285 3.15303 11.9859 3.07565 9.66608 3.15303C6.10896 3.2304 3.94376 4.85527 3.32513 7.95027C3.17047 8.56927 3.09315 9.26564 3.09315 9.88464C3.09315 14.1403 3.01582 18.4732 3.09315 22.7289C3.17047 26.9845 5.33567 29.2284 9.43409 29.3831C14.0738 29.5379 18.7135 29.5379 23.3533 29.3831C26.7557 29.2284 28.8436 27.6035 29.4622 24.6632C29.5395 24.1216 29.6942 23.58 29.6942 23.0384C29.6942 18.1637 30.0035 13.2891 29.5395 8.41452C29.3076 5.55165 27.3743 3.61727 24.4359 3.2304C21.884 2.99828 19.1775 3.2304 16.471 3.15303Z" fill="white"/>
<path d="M24.9771 16.3842C24.9771 20.9493 21.188 24.7407 16.4709 24.8181C11.7539 24.8954 7.88745 21.0267 7.88745 16.3068C7.88745 11.6643 11.8312 7.79559 16.4709 7.87297C21.2653 7.95034 24.9771 11.7417 24.9771 16.3842ZM21.8066 16.3842C21.8066 13.444 19.4094 11.0453 16.4709 11.0453C13.5324 11.0453 11.0579 13.444 11.0579 16.3842C11.0579 19.3244 13.4551 21.7231 16.3936 21.7231C19.4094 21.6457 21.8066 19.2471 21.8066 16.3842Z" fill="white"/>
<path d="M25.2091 5.62915C26.369 5.62915 27.297 6.55765 27.297 7.6409C27.297 8.72415 26.369 9.65264 25.2864 9.65264C24.1265 9.65264 23.1985 8.80152 23.1212 7.6409C23.1212 6.55765 24.0492 5.62915 25.2091 5.62915Z" fill="white"/>
</svg>
