<svg width="29" height="28" viewBox="0 0 29 28" fill="none" xmlns="http://www.w3.org/2000/svg">
<path d="M6.53209 8.99707H0.898654C0.648633 8.99707 0.446045 9.19975 0.446045 9.44968V27.5475C0.446045 27.7975 0.648633 28.0001 0.898654 28.0001H6.53209C6.78211 28.0001 6.9847 27.7975 6.9847 27.5475V9.44968C6.9847 9.19975 6.78211 8.99707 6.53209 8.99707Z" fill="white"/>
<path d="M3.71737 0C1.66759 0 0 1.66578 0 3.71329C0 5.76171 1.66759 7.42812 3.71737 7.42812C5.76551 7.42812 7.43174 5.76162 7.43174 3.71329C7.43183 1.66578 5.76551 0 3.71737 0Z" fill="white"/>
<path d="M20.8612 8.54712C18.5986 8.54712 16.926 9.51977 15.9115 10.625V9.44953C15.9115 9.1996 15.709 8.99692 15.4589 8.99692H10.0639C9.81392 8.99692 9.61133 9.1996 9.61133 9.44953V27.5474C9.61133 27.7974 9.81392 28 10.0639 28H15.6851C15.9351 28 16.1377 27.7974 16.1377 27.5474V18.5931C16.1377 15.5758 16.9573 14.4003 19.0606 14.4003C21.3514 14.4003 21.5334 16.2847 21.5334 18.7484V27.5474C21.5334 27.7975 21.736 28.0001 21.986 28.0001H27.6092C27.8592 28.0001 28.0618 27.7975 28.0618 27.5474V17.6205C28.0618 13.1338 27.2063 8.54712 20.8612 8.54712Z" fill="white"/>
</svg>
